<svg width="20" height="20" viewBox="0 0 20 20" fill="none" xmlns="http://www.w3.org/2000/svg">
<g clip-path="url(#clip0_1381_3118)">
<path d="M17.5 6.66666H2.5M13.3333 1.66666V4.16666M6.66667 1.66666V4.16666M10 15V9.99999M7.5 12.5H12.5M6.5 18.3333H13.5C14.9001 18.3333 15.6002 18.3333 16.135 18.0608C16.6054 17.8212 16.9878 17.4387 17.2275 16.9683C17.5 16.4335 17.5 15.7335 17.5 14.3333V7.33332C17.5 5.93319 17.5 5.23313 17.2275 4.69835C16.9878 4.22794 16.6054 3.84549 16.135 3.60581C15.6002 3.33332 14.9001 3.33332 13.5 3.33332H6.5C5.09987 3.33332 4.3998 3.33332 3.86502 3.60581C3.39462 3.84549 3.01217 4.22794 2.77248 4.69835C2.5 5.23313 2.5 5.93319 2.5 7.33332V14.3333C2.5 15.7335 2.5 16.4335 2.77248 16.9683C3.01217 17.4387 3.39462 17.8212 3.86502 18.0608C4.3998 18.3333 5.09987 18.3333 6.5 18.3333Z" stroke="#98A2B3" stroke-width="1.6" stroke-linecap="round" stroke-linejoin="round"/>
</g>
<defs>
<clipPath id="clip0_1381_3118">
<rect width="20" height="20" fill="white"/>
</clipPath>
</defs>
</svg>
