<svg width="27" height="26" viewBox="0 0 27 26" fill="none" xmlns="http://www.w3.org/2000/svg">
<path d="M7.00008 21.7611H9.8279C10.1966 21.7611 10.563 21.805 10.9205 21.8927L13.9084 22.6188C14.5567 22.7768 15.2321 22.7921 15.8872 22.6649L19.1908 22.0222C20.0635 21.8521 20.8663 21.4343 21.4955 20.8222L23.8328 18.5486C24.5003 17.9003 24.5003 16.8485 23.8328 16.1992C23.2318 15.6146 22.2802 15.5488 21.6003 16.0445L18.8762 18.032C18.4861 18.3171 18.0114 18.4707 17.5232 18.4707H14.8927L16.5671 18.4706C17.5108 18.4706 18.2753 17.727 18.2753 16.8089V16.4766C18.2753 15.7143 17.7419 15.0497 16.982 14.8654L14.3977 14.2369C13.9772 14.1349 13.5465 14.0834 13.1135 14.0834C12.0683 14.0834 10.1763 14.9487 10.1763 14.9487L7.00008 16.277M2.66675 15.8167L2.66675 22.1C2.66675 22.7068 2.66675 23.0101 2.78482 23.2419C2.88869 23.4457 3.05442 23.6114 3.25826 23.7153C3.49 23.8334 3.79336 23.8334 4.40008 23.8334H5.26675C5.87347 23.8334 6.17683 23.8334 6.40857 23.7153C6.61241 23.6114 6.77814 23.4457 6.88201 23.2419C7.00008 23.0101 7.00008 22.7068 7.00008 22.1V15.8167C7.00008 15.21 7.00008 14.9066 6.88201 14.6749C6.77814 14.471 6.61241 14.3053 6.40857 14.2014C6.17683 14.0834 5.87347 14.0834 5.26675 14.0834H4.40008C3.79336 14.0834 3.49 14.0834 3.25826 14.2014C3.05442 14.3053 2.88869 14.471 2.78482 14.6749C2.66675 14.9066 2.66675 15.21 2.66675 15.8167ZM19.1241 3.89164C18.4775 2.53871 16.9869 1.82196 15.5372 2.51377C14.0876 3.20557 13.47 4.84619 14.0769 6.28642C14.452 7.17653 15.5267 8.90503 16.293 10.0956C16.5761 10.5356 16.7177 10.7555 16.9245 10.8842C17.1019 10.9946 17.3239 11.0541 17.5327 11.0472C17.7761 11.0391 18.0087 10.9194 18.4738 10.68C19.7328 10.032 21.5277 9.07246 22.2976 8.48916C23.5434 7.54536 23.852 5.81057 22.9193 4.49179C21.9866 3.17301 20.3605 3.04324 19.1241 3.89164Z" stroke="#0C111D" stroke-width="1.95" stroke-linecap="round" stroke-linejoin="round"/>
</svg>
