<svg width="18" height="17" viewBox="0 0 18 17" fill="none" xmlns="http://www.w3.org/2000/svg">
<path d="M8.75575 1.53039C5.15343 1.86351 2.33294 4.89404 2.33294 8.58333C2.33294 9.375 2.46281 10.1363 2.70241 10.8472C2.79258 11.1147 2.83766 11.2484 2.8458 11.3512C2.85383 11.4527 2.84776 11.5238 2.82265 11.6225C2.79723 11.7223 2.7411 11.8262 2.62885 12.034L1.2658 14.557C1.07138 14.9168 0.974164 15.0968 0.995921 15.2356C1.01487 15.3566 1.08606 15.4631 1.19058 15.5269C1.31059 15.6001 1.51402 15.579 1.92089 15.537L6.18841 15.0958C6.31759 15.0825 6.38227 15.0758 6.44116 15.0781C6.49908 15.0803 6.53998 15.0857 6.59647 15.0987C6.6539 15.112 6.72612 15.1398 6.87057 15.1954C7.66061 15.4998 8.51896 15.6667 9.41627 15.6667C13.1086 15.6667 16.1411 12.8415 16.47 9.23495M15.7674 2.23223C16.7437 3.20854 16.7437 4.79146 15.7674 5.76777C14.7911 6.74408 13.2081 6.74408 12.2318 5.76777C11.2555 4.79146 11.2555 3.20854 12.2318 2.23223C13.2081 1.25592 14.7911 1.25592 15.7674 2.23223Z" stroke="#344054" stroke-width="1.66667" stroke-linecap="round" stroke-linejoin="round"/>
</svg>
