<svg width="32" height="40" viewBox="0 0 32 40" fill="none" xmlns="http://www.w3.org/2000/svg">
<path d="M0 4C0 1.79086 1.79086 0 4 0H20L32 12V36C32 38.2091 30.2091 40 28 40H4C1.79086 40 0 38.2091 0 36V4Z" fill="url(#paint0_linear_1_891)"/>
<path d="M6.9229 32V25.4545H9.50528C10.0017 25.4545 10.4247 25.5494 10.7741 25.739C11.1235 25.9265 11.3899 26.1875 11.5731 26.522C11.7585 26.8544 11.8512 27.2379 11.8512 27.6726C11.8512 28.1072 11.7574 28.4908 11.5699 28.8232C11.3824 29.1555 11.1108 29.4144 10.7549 29.5998C10.4012 29.7852 9.97297 29.8778 9.47013 29.8778H7.82417V28.7688H9.2464C9.51274 28.7688 9.7322 28.723 9.90479 28.6314C10.0795 28.5376 10.2095 28.4087 10.2947 28.2447C10.3821 28.0785 10.4257 27.8878 10.4257 27.6726C10.4257 27.4553 10.3821 27.2656 10.2947 27.1037C10.2095 26.9396 10.0795 26.8129 9.90479 26.7234C9.73007 26.6317 9.50848 26.5859 9.24001 26.5859H8.30677V32H6.9229ZM18.2248 25.4545V32H17.0295L14.1819 27.8803H14.1339V32H12.75V25.4545H13.9645L16.7898 29.571H16.8473V25.4545H18.2248ZM23.7084 27.5703C23.6637 27.4148 23.6008 27.2773 23.5198 27.158C23.4389 27.0366 23.3398 26.9343 23.2226 26.8512C23.1076 26.766 22.9755 26.701 22.8263 26.6562C22.6793 26.6115 22.5163 26.5891 22.3373 26.5891C22.0028 26.5891 21.7088 26.6722 21.4552 26.8384C21.2038 27.0046 21.0078 27.2464 20.8671 27.5639C20.7265 27.8793 20.6562 28.2649 20.6562 28.7209C20.6562 29.1768 20.7255 29.5646 20.8639 29.8842C21.0024 30.2038 21.1985 30.4478 21.452 30.6161C21.7056 30.7823 22.0049 30.8654 22.3501 30.8654C22.6633 30.8654 22.9307 30.81 23.1523 30.6992C23.376 30.5863 23.5465 30.4276 23.6637 30.223C23.783 30.0185 23.8426 29.7766 23.8426 29.4975L24.1239 29.5391H22.4364V28.4972H25.1754V29.3217C25.1754 29.897 25.0539 30.3913 24.811 30.8047C24.5681 31.2159 24.2336 31.5334 23.8075 31.7571C23.3813 31.9787 22.8934 32.0895 22.3437 32.0895C21.7301 32.0895 21.191 31.9542 20.7265 31.6836C20.262 31.4109 19.8998 31.0241 19.6399 30.5234C19.3821 30.0206 19.2532 29.424 19.2532 28.7337C19.2532 28.2031 19.3299 27.7301 19.4833 27.3146C19.6388 26.897 19.8561 26.5433 20.1353 26.2536C20.4144 25.9638 20.7393 25.7433 21.11 25.592C21.4808 25.4407 21.8824 25.3651 22.3149 25.3651C22.6857 25.3651 23.0309 25.4194 23.3505 25.5281C23.6701 25.6346 23.9534 25.7859 24.2006 25.9819C24.4499 26.1779 24.6534 26.4112 24.811 26.6818C24.9687 26.9503 25.0699 27.2464 25.1147 27.5703H23.7084Z" fill="#344054"/>
<defs>
<linearGradient id="paint0_linear_1_891" x1="16" y1="0" x2="16" y2="40" gradientUnits="userSpaceOnUse">
<stop stop-color="#F9FAFB"/>
<stop offset="1" stop-color="#EDF0F3"/>
</linearGradient>
</defs>
</svg>
