<svg width="27" height="26" viewBox="0 0 27 26" fill="none" xmlns="http://www.w3.org/2000/svg">
<path d="M18.375 15.1667H18.3858M3.75 5.41667V20.5833C3.75 21.7799 4.72005 22.75 5.91667 22.75H21.0833C22.28 22.75 23.25 21.78 23.25 20.5833V9.75C23.25 8.55338 22.28 7.58334 21.0833 7.58333L5.91667 7.58333C4.72005 7.58333 3.75 6.61328 3.75 5.41667ZM3.75 5.41667C3.75 4.22005 4.72005 3.25 5.91667 3.25H18.9167M18.9167 15.1667C18.9167 15.4658 18.6742 15.7083 18.375 15.7083C18.0758 15.7083 17.8333 15.4658 17.8333 15.1667C17.8333 14.8675 18.0758 14.625 18.375 14.625C18.6742 14.625 18.9167 14.8675 18.9167 15.1667Z" stroke="#0C111D" stroke-width="1.95" stroke-linecap="round" stroke-linejoin="round"/>
</svg>
