<svg width="29" height="32" viewBox="0 0 29 32" fill="none" xmlns="http://www.w3.org/2000/svg">
<g id="Group 110">
<path id="h" d="M11.0222 16.7111H12.6667V19.8667C13.0111 19.6778 13.3944 19.5278 13.8167 19.4167C14.2426 19.3056 14.6889 19.25 15.1556 19.25C15.6963 19.25 16.1815 19.3296 16.6111 19.4889C17.0444 19.6482 17.4111 19.8778 17.7111 20.1778C18.0111 20.4741 18.2407 20.8352 18.4 21.2611C18.563 21.687 18.6444 22.1667 18.6444 22.7V25.9222H17.0056V22.7667C17.0056 22.4556 16.9556 22.1722 16.8556 21.9167C16.7556 21.6574 16.6093 21.4352 16.4167 21.25C16.2241 21.0648 15.9889 20.9222 15.7111 20.8222C15.437 20.7185 15.1259 20.6667 14.7778 20.6667C14.3593 20.6667 13.9704 20.7333 13.6111 20.8667C13.2518 21 12.937 21.1685 12.6667 21.3722V25.9222H11.0222V16.7111Z" fill="#FB5607"/>
<g id="Bag 1">
<path id="Vector (Stroke)" fill-rule="evenodd" clip-rule="evenodd" d="M7.37007 6.75556C7.37007 3.02457 10.3946 0 14.1256 0C17.8566 0 20.8812 3.02457 20.8812 6.75556V7.37529C21.4225 7.48214 21.9229 7.63471 22.4035 7.85502C23.8335 8.51054 25.044 9.56458 25.89 10.8908C26.4021 11.6934 26.7059 12.5914 26.9446 13.6867C27.1784 14.7599 27.3643 16.0978 27.6007 17.7999L27.6137 17.8941C27.918 20.0845 28.1558 21.7968 28.228 23.1761C28.3014 24.5764 28.2127 25.7434 27.7914 26.8147C27.1029 28.5658 25.8316 30.0259 24.1919 30.9488C23.1886 31.5134 22.045 31.7618 20.6479 31.8818C19.2718 32 17.5431 32 15.3318 32H12.9195C10.7081 32 8.97943 32 7.60339 31.8818C6.20626 31.7618 5.0626 31.5134 4.05938 30.9488C2.41968 30.0259 1.14838 28.5658 0.459848 26.8147C0.0385846 25.7434 -0.0501364 24.5764 0.023204 23.1761C0.0954374 21.7969 0.333259 20.0846 0.63748 17.8942L0.650574 17.8C0.886976 16.0978 1.07279 14.7599 1.30665 13.6867C1.54533 12.5914 1.84917 11.6934 2.36123 10.8908C3.20724 9.56458 4.41779 8.51054 5.84774 7.85502C6.3283 7.63471 6.8287 7.48215 7.37007 7.37529V6.75556ZM7.37007 9.56534V13.8667C7.37007 14.4558 7.84763 14.9333 8.43673 14.9333C9.02584 14.9333 9.5034 14.4558 9.5034 13.8667V9.2871C10.4049 9.24517 11.5175 9.24444 12.9706 9.24444H15.2806C16.7338 9.24444 17.8464 9.24517 18.7478 9.2871V13.8667C18.7478 14.4558 19.2254 14.9333 19.8145 14.9333C20.4036 14.9333 20.8812 14.4558 20.8812 13.8667V9.56534C21.1128 9.62953 21.3205 9.70535 21.5145 9.79429C22.5714 10.2788 23.4662 11.0579 24.0915 12.0381C24.4143 12.5441 24.6486 13.17 24.8602 14.1409C25.0746 15.1248 25.2499 16.3818 25.4937 18.1371C25.8064 20.3889 26.0307 22.0107 26.0976 23.2876C26.164 24.5541 26.0668 25.371 25.806 26.0341C25.2971 27.3284 24.3575 28.4075 23.1455 29.0897C22.5246 29.4391 21.7288 29.6478 20.4653 29.7563C19.1912 29.8657 17.554 29.8667 15.2806 29.8667H12.9706C10.6972 29.8667 9.06001 29.8657 7.78595 29.7563C6.5224 29.6478 5.72667 29.4391 5.10574 29.0897C3.89379 28.4075 2.95413 27.3284 2.44522 26.0341C2.18448 25.371 2.08729 24.5541 2.15362 23.2876C2.2205 22.0107 2.44481 20.3889 2.75756 18.1371C3.00135 16.3818 3.17666 15.1248 3.39107 14.1409C3.60263 13.17 3.83698 12.5441 4.15976 12.0381C4.78508 11.0579 5.67983 10.2788 6.73675 9.79429C6.93075 9.70535 7.13842 9.62953 7.37007 9.56534ZM18.7478 7.15186C17.798 7.11109 16.6817 7.1111 15.345 7.11111H12.9062C11.5695 7.1111 10.4533 7.11109 9.5034 7.15186V6.75556C9.5034 4.20277 11.5728 2.13333 14.1256 2.13333C16.6784 2.13333 18.7478 4.20277 18.7478 6.75556V7.15186Z" fill="#FB5607"/>
</g>
</g>
</svg>
