<svg width="72" height="24" viewBox="0 0 72 24" fill="none" xmlns="http://www.w3.org/2000/svg">
<g id="humy">
<path d="M0.251221 0H3.50099V6.23605C4.18169 5.86276 4.93924 5.56633 5.77364 5.34675C6.61536 5.12717 7.49733 5.01738 8.41957 5.01738C9.48818 5.01738 10.447 5.17475 11.2961 5.48948C12.1524 5.80421 12.877 6.25801 13.4699 6.85087C14.0627 7.43641 14.5165 8.15005 14.8313 8.99177C15.1533 9.83349 15.3143 10.7813 15.3143 11.8353V18.2031H12.0756V11.9671C12.0756 11.3522 11.9767 10.7923 11.7791 10.2873C11.5815 9.77493 11.2924 9.33577 10.9118 8.96981C10.5312 8.60384 10.0664 8.32205 9.51746 8.12443C8.97583 7.91949 8.36101 7.81702 7.673 7.81702C6.84591 7.81702 6.07739 7.94877 5.36741 8.21226C4.65744 8.47576 4.0353 8.80878 3.50099 9.21134V18.2031H0.251221V0Z" fill="#FB5607"/>
<path d="M15.4461 5.23696H18.6849V11.5608C18.6849 12.161 18.7508 12.71 18.8825 13.2077C19.0143 13.6981 19.2375 14.1189 19.5522 14.4703C19.8743 14.8216 20.2988 15.0961 20.8258 15.2937C21.3601 15.484 22.0225 15.5791 22.813 15.5791C23.1863 15.5791 23.5632 15.5389 23.9438 15.4584C24.3317 15.3779 24.7014 15.2681 25.0527 15.129C25.404 14.9826 25.7297 14.8106 26.0298 14.613C26.3372 14.4154 26.6007 14.1995 26.8203 13.9652V5.23696H30.0701V18.2031H26.8203V17.0942C26.0225 17.57 25.221 17.9103 24.4159 18.1153C23.6108 18.3202 22.8459 18.4227 22.1213 18.4227C20.9356 18.4227 19.9182 18.28 19.0692 17.9945C18.2274 17.7091 17.5358 17.2955 16.9941 16.7539C16.4598 16.2049 16.0682 15.5352 15.8194 14.7447C15.5705 13.9469 15.4461 13.0393 15.4461 12.022V5.23696Z" fill="#FB5607"/>
<path d="M30.7727 5.24794H34.0225V6.34584C34.8349 5.84812 35.6254 5.50412 36.3939 5.31382C37.1698 5.11619 37.9273 5.01738 38.6666 5.01738C39.6986 5.01738 40.6465 5.18207 41.5101 5.51144C42.3738 5.84081 43.1131 6.33852 43.7279 7.00457C44.2036 6.63861 44.6721 6.3312 45.1332 6.08234C45.5943 5.82617 46.0554 5.62123 46.5165 5.46752C46.9777 5.3065 47.4461 5.19305 47.9219 5.12717C48.3976 5.05398 48.888 5.01738 49.393 5.01738C50.4543 5.01738 51.4168 5.16377 52.2805 5.45654C53.1442 5.74199 53.8798 6.17017 54.4873 6.74108C55.1021 7.31199 55.5742 8.02562 55.9036 8.88198C56.2402 9.73102 56.4086 10.7155 56.4086 11.8353V18.2031H53.1698V12.3623C53.1698 11.6523 53.0673 11.0192 52.8624 10.4629C52.6648 9.89936 52.383 9.42726 52.017 9.04666C51.6584 8.65874 51.2265 8.36597 50.7215 8.16834C50.2238 7.9634 49.6748 7.86093 49.0746 7.86093C48.7453 7.86093 48.4086 7.89387 48.0646 7.95974C47.7206 8.0183 47.3839 8.11345 47.0545 8.2452C46.7325 8.37694 46.4287 8.54529 46.1433 8.75023C45.8578 8.94785 45.609 9.18207 45.3967 9.45288V18.2031H42.1579V12.3623C42.1579 11.6523 42.0554 11.0192 41.8505 10.4629C41.6529 9.89936 41.3711 9.42726 41.0051 9.04666C40.6465 8.65874 40.211 8.36597 39.6986 8.16834C39.1936 7.9634 38.6373 7.86093 38.0298 7.86093C37.6565 7.86093 37.2796 7.90119 36.899 7.9817C36.5257 8.05489 36.1634 8.16103 35.8121 8.30009C35.4681 8.43916 35.1423 8.6075 34.8349 8.80512C34.5348 9.00275 34.264 9.22598 34.0225 9.47484V18.2031H30.7727V5.24794Z" fill="#FB5607"/>
<path d="M58.5385 19.828C58.8752 20.0476 59.2412 20.2415 59.6364 20.4099C60.0316 20.5782 60.4415 20.7173 60.866 20.8271C61.2979 20.9369 61.737 21.0174 62.1835 21.0686C62.63 21.1272 63.0728 21.1565 63.512 21.1565C65.0051 21.1565 66.1542 20.8344 66.9594 20.1903C67.7718 19.5535 68.178 18.5947 68.178 17.3138V16.8747C67.8926 17.0723 67.5705 17.2553 67.2119 17.4236C66.8606 17.5846 66.4799 17.7237 66.0701 17.8408C65.6675 17.9579 65.2393 18.0494 64.7855 18.1153C64.3391 18.1738 63.8853 18.2031 63.4241 18.2031C62.436 18.2031 61.5504 18.0604 60.7672 17.7749C59.9914 17.4822 59.3327 17.0576 58.791 16.5014C58.2567 15.9378 57.8468 15.2461 57.5614 14.4264C57.2759 13.6066 57.1332 12.6697 57.1332 11.6157V5.24794H60.372V10.7155C60.372 12.2818 60.6684 13.4382 61.2613 14.1848C61.8615 14.9241 62.8057 15.2937 64.0939 15.2937C65.0015 15.2937 65.8029 15.1363 66.4983 14.8216C67.2009 14.4995 67.7608 14.0897 68.178 13.5919V5.24794H71.4278V16.721C71.4278 17.9579 71.2521 19.0302 70.9008 19.9378C70.5495 20.8527 70.0371 21.6102 69.3638 22.2104C68.6977 22.8106 67.8779 23.2571 66.9045 23.5499C65.931 23.85 64.8258 24 63.5888 24C62.3811 24 61.254 23.8719 60.2073 23.6157C59.1606 23.3596 58.2018 23.0119 57.3308 22.5727L58.5385 19.828Z" fill="#FB5607"/>
</g>
</svg>
