<svg width="20" height="20" viewBox="0 0 20 20" fill="none" xmlns="http://www.w3.org/2000/svg">
<path d="M9.99999 16.6667H17.5M2.50002 16.6666H3.89547C4.30312 16.6666 4.50694 16.6666 4.69876 16.6206C4.86882 16.5798 5.03139 16.5124 5.18051 16.421C5.34871 16.318 5.49283 16.1738 5.78109 15.8856L16.25 5.41665C16.9404 4.72629 16.9404 3.607 16.25 2.91665C15.5597 2.22629 14.4404 2.22629 13.75 2.91665L3.28107 13.3856C2.99281 13.6739 2.84869 13.818 2.74562 13.9862C2.65423 14.1353 2.58689 14.2979 2.54607 14.4679C2.50002 14.6597 2.50002 14.8636 2.50002 15.2712V16.6666Z" stroke="#98A2B3" stroke-width="1.25" stroke-linecap="round" stroke-linejoin="round"/>
</svg>
