<svg width="20" height="20" viewBox="0 0 20 20" fill="none" xmlns="http://www.w3.org/2000/svg">
<path d="M10 18.3333C14.6024 18.3333 18.3333 14.6024 18.3333 10C18.3333 5.39763 14.6024 1.66667 10 1.66667C5.39762 1.66667 1.66666 5.39763 1.66666 10C1.66666 14.6024 5.39762 18.3333 10 18.3333Z" stroke="#98A2B3" stroke-width="1.25" stroke-linecap="round" stroke-linejoin="round"/>
<path d="M6.66666 8C6.66666 7.53329 6.66666 7.29994 6.75749 7.12168C6.83739 6.96488 6.96487 6.83739 7.12167 6.7575C7.29993 6.66667 7.53329 6.66667 8 6.66667H12C12.4667 6.66667 12.7001 6.66667 12.8783 6.7575C13.0351 6.83739 13.1626 6.96488 13.2425 7.12168C13.3333 7.29994 13.3333 7.53329 13.3333 8V12C13.3333 12.4667 13.3333 12.7001 13.2425 12.8783C13.1626 13.0351 13.0351 13.1626 12.8783 13.2425C12.7001 13.3333 12.4667 13.3333 12 13.3333H8C7.53329 13.3333 7.29993 13.3333 7.12167 13.2425C6.96487 13.1626 6.83739 13.0351 6.75749 12.8783C6.66666 12.7001 6.66666 12.4667 6.66666 12V8Z" stroke="#98A2B3" stroke-width="1.25" stroke-linecap="round" stroke-linejoin="round"/>
</svg>
