<svg width="27" height="26" viewBox="0 0 27 26" fill="none" xmlns="http://www.w3.org/2000/svg">
<path d="M24.3333 8.6667V13M11.6042 5.95836H7.86666C6.04649 5.95836 5.13641 5.95836 4.44119 6.31259C3.82967 6.62418 3.33248 7.12136 3.02089 7.73289C2.66666 8.42811 2.66666 9.33819 2.66666 11.1584L2.66666 12.4584C2.66667 13.4679 2.66667 13.9727 2.83159 14.3708C3.0515 14.9017 3.47329 15.3235 4.00418 15.5434C4.40235 15.7084 4.90713 15.7084 5.91667 15.7084V20.3125C5.91667 20.564 5.91667 20.6898 5.9271 20.7957C6.02842 21.8244 6.84228 22.6383 7.87096 22.7396C7.97689 22.75 8.10265 22.75 8.35417 22.75C8.60568 22.75 8.73144 22.75 8.83737 22.7396C9.86605 22.6383 10.6799 21.8244 10.7812 20.7957C10.7917 20.6898 10.7917 20.564 10.7917 20.3125V15.7084H11.6042C13.5178 15.7084 15.8587 16.7342 17.6647 17.7186C18.7182 18.293 19.245 18.5801 19.59 18.5379C19.91 18.4987 20.1519 18.355 20.3394 18.0929C20.5417 17.8102 20.5417 17.2445 20.5417 16.1132V5.5535C20.5417 4.42219 20.5417 3.85653 20.3394 3.57382C20.1519 3.31167 19.91 3.16802 19.59 3.12883C19.245 3.08657 18.7182 3.37374 17.6647 3.94808C15.8587 4.93256 13.5178 5.95836 11.6042 5.95836Z" stroke="#0C111D" stroke-width="1.95" stroke-linecap="round" stroke-linejoin="round"/>
</svg>
