<svg width="27" height="26" viewBox="0 0 27 26" fill="none" xmlns="http://www.w3.org/2000/svg">
<path d="M14.0412 15.7083V9.20833M10.7912 12.4583H17.2912M14.0412 21.6667C19.1268 21.6667 23.2495 17.544 23.2495 12.4583C23.2495 7.37271 19.1268 3.25 14.0412 3.25C8.95556 3.25 4.83285 7.37271 4.83285 12.4583C4.83285 13.4875 5.00168 14.4772 5.31316 15.4013C5.43038 15.7491 5.48899 15.923 5.49956 16.0565C5.51 16.1885 5.50211 16.281 5.46947 16.4092C5.43642 16.5391 5.36346 16.6741 5.21753 16.9442L3.44557 20.224C3.19281 20.6919 3.06644 20.9258 3.09472 21.1063C3.11936 21.2636 3.21191 21.402 3.34778 21.4849C3.50379 21.5801 3.76825 21.5527 4.29718 21.4981L9.84496 20.9246C10.013 20.9072 10.097 20.8985 10.1735 20.9015C10.2488 20.9044 10.302 20.9114 10.3754 20.9284C10.4501 20.9456 10.544 20.9817 10.7318 21.0541C11.7588 21.4498 12.8747 21.6667 14.0412 21.6667Z" stroke="#0C111D" stroke-width="1.95" stroke-linecap="round" stroke-linejoin="round"/>
</svg>
