<svg width="43" height="45" viewBox="0 0 43 45" fill="none" xmlns="http://www.w3.org/2000/svg">
<g id="Ellipse 1075">
<mask id="path-1-inside-1_362_10337" fill="white">
<path d="M1.11799 35.7192C0.760135 36.0138 0.707735 36.5437 1.01462 36.8911C3.17218 39.333 5.80654 41.3123 8.7588 42.7052C11.9643 44.2177 15.465 45.0014 19.0094 45C22.5538 44.9986 26.0539 44.2122 29.2582 42.6972C32.4625 41.1823 35.2915 38.9764 37.5419 36.238C39.7923 33.4997 41.4083 30.2969 42.2736 26.8598C43.139 23.4227 43.2324 19.8365 42.547 16.359C41.8616 12.8815 40.4145 9.59902 38.3096 6.74732C36.371 4.1209 33.9188 1.91997 31.1051 0.27644C30.7049 0.0426657 30.1951 0.196758 29.9755 0.604902C29.7559 1.01305 29.9096 1.52059 30.3092 1.75541C32.9049 3.28078 35.1678 5.31711 36.9592 7.74408C38.9169 10.3964 40.2628 13.4493 40.9002 16.6836C41.5377 19.9179 41.4509 23.2532 40.646 26.45C39.8411 29.6467 38.3382 32.6255 36.2452 35.1724C34.1522 37.7192 31.521 39.7708 28.5408 41.1798C25.5606 42.5888 22.3053 43.3203 19.0087 43.3216C15.7122 43.3228 12.4563 42.594 9.47502 41.1873C6.74695 39.9001 4.31075 38.0746 2.31135 35.8237C2.00355 35.4771 1.47584 35.4247 1.11799 35.7192Z"/>
</mask>
<path d="M1.11799 35.7192C0.760135 36.0138 0.707735 36.5437 1.01462 36.8911C3.17218 39.333 5.80654 41.3123 8.7588 42.7052C11.9643 44.2177 15.465 45.0014 19.0094 45C22.5538 44.9986 26.0539 44.2122 29.2582 42.6972C32.4625 41.1823 35.2915 38.9764 37.5419 36.238C39.7923 33.4997 41.4083 30.2969 42.2736 26.8598C43.139 23.4227 43.2324 19.8365 42.547 16.359C41.8616 12.8815 40.4145 9.59902 38.3096 6.74732C36.371 4.1209 33.9188 1.91997 31.1051 0.27644C30.7049 0.0426657 30.1951 0.196758 29.9755 0.604902C29.7559 1.01305 29.9096 1.52059 30.3092 1.75541C32.9049 3.28078 35.1678 5.31711 36.9592 7.74408C38.9169 10.3964 40.2628 13.4493 40.9002 16.6836C41.5377 19.9179 41.4509 23.2532 40.646 26.45C39.8411 29.6467 38.3382 32.6255 36.2452 35.1724C34.1522 37.7192 31.521 39.7708 28.5408 41.1798C25.5606 42.5888 22.3053 43.3203 19.0087 43.3216C15.7122 43.3228 12.4563 42.594 9.47502 41.1873C6.74695 39.9001 4.31075 38.0746 2.31135 35.8237C2.00355 35.4771 1.47584 35.4247 1.11799 35.7192Z" stroke="#FB5607" stroke-width="3" mask="url(#path-1-inside-1_362_10337)"/>
</g>
</svg>
