<svg width="57" height="56" viewBox="0 0 57 56" fill="none" xmlns="http://www.w3.org/2000/svg">
<rect x="4.33334" y="4" width="48" height="48" rx="24" fill="#DCFAE6"/>
<rect x="4.33334" y="4" width="48" height="48" rx="24" stroke="#ECFDF3" stroke-width="8"/>
<path d="M38.3333 23L30.4647 30.8686C30.0687 31.2646 29.8707 31.4627 29.6424 31.5368C29.4415 31.6021 29.2252 31.6021 29.0243 31.5368C28.796 31.4627 28.598 31.2646 28.202 30.8686L25.4647 28.1314C25.0687 27.7354 24.8707 27.5373 24.6424 27.4632C24.4415 27.3979 24.2252 27.3979 24.0243 27.4632C23.796 27.5373 23.598 27.7354 23.202 28.1314L18.3333 33M38.3333 23H31.3333M38.3333 23V30" stroke="#079455" stroke-width="2" stroke-linecap="round" stroke-linejoin="round"/>
</svg>
