<svg width="56" height="56" viewBox="0 0 56 56" fill="none" xmlns="http://www.w3.org/2000/svg">
<rect x="4" y="4" width="48" height="48" rx="24" fill="#FEEACD"/>
<rect x="4" y="4" width="48" height="48" rx="24" stroke="#FFE0D5" stroke-width="8"/>
<path d="M27.2826 19.4533C27.5131 18.9864 27.6283 18.7529 27.7848 18.6783C27.9209 18.6134 28.0791 18.6134 28.2152 18.6783C28.3716 18.7529 28.4869 18.9864 28.7174 19.4533L30.904 23.8833C30.9721 24.0211 31.0061 24.0901 31.0558 24.1436C31.0998 24.191 31.1526 24.2293 31.2113 24.2566C31.2775 24.2874 31.3536 24.2985 31.5057 24.3208L36.397 25.0357C36.912 25.111 37.1696 25.1486 37.2888 25.2744C37.3924 25.3839 37.4412 25.5343 37.4215 25.6838C37.3988 25.8556 37.2123 26.0372 36.8394 26.4004L33.3014 29.8464C33.1911 29.9538 33.136 30.0076 33.1004 30.0715C33.0689 30.128 33.0487 30.1902 33.0409 30.2545C33.0321 30.3271 33.0451 30.403 33.0711 30.5547L33.9059 35.4221C33.994 35.9355 34.038 36.1922 33.9553 36.3445C33.8833 36.477 33.7553 36.57 33.607 36.5975C33.4366 36.6291 33.2061 36.5078 32.7451 36.2654L28.3723 33.9658C28.2361 33.8942 28.168 33.8584 28.0962 33.8443C28.0327 33.8318 27.9673 33.8318 27.9038 33.8443C27.832 33.8584 27.7639 33.8942 27.6276 33.9658L23.2549 36.2654C22.7939 36.5078 22.5634 36.6291 22.3929 36.5975C22.2447 36.57 22.1167 36.477 22.0447 36.3445C21.962 36.1922 22.006 35.9355 22.094 35.4221L22.9289 30.5547C22.9549 30.403 22.9679 30.3271 22.9591 30.2545C22.9513 30.1902 22.9311 30.128 22.8996 30.0715C22.864 30.0076 22.8088 29.9538 22.6986 29.8464L19.1605 26.4004C18.7876 26.0372 18.6012 25.8556 18.5785 25.6838C18.5588 25.5343 18.6075 25.3839 18.7112 25.2744C18.8304 25.1486 19.0879 25.111 19.603 25.0357L24.4943 24.3208C24.6464 24.2985 24.7224 24.2874 24.7887 24.2566C24.8473 24.2293 24.9001 24.191 24.9442 24.1436C24.9939 24.0901 25.0279 24.0211 25.0959 23.8833L27.2826 19.4533Z" stroke="#FB5607" stroke-width="2" stroke-linecap="round" stroke-linejoin="round"/>
</svg>
