<svg width="57" height="56" viewBox="0 0 57 56" fill="none" xmlns="http://www.w3.org/2000/svg">
<rect x="4.66663" y="4" width="48" height="48" rx="24" fill="#FEE4E2"/>
<rect x="4.66663" y="4" width="48" height="48" rx="24" stroke="#FEF3F2" stroke-width="8"/>
<path d="M38.6666 33L30.798 25.1314C30.402 24.7354 30.204 24.5373 29.9756 24.4632C29.7748 24.3979 29.5585 24.3979 29.3576 24.4632C29.1293 24.5373 28.9313 24.7354 28.5353 25.1314L25.798 27.8686C25.402 28.2646 25.204 28.4627 24.9756 28.5368C24.7748 28.6021 24.5585 28.6021 24.3576 28.5368C24.1293 28.4627 23.9313 28.2646 23.5353 27.8686L18.6666 23M38.6666 33H31.6666M38.6666 33V26" stroke="#D92D20" stroke-width="2" stroke-linecap="round" stroke-linejoin="round"/>
</svg>
