<svg width="18" height="17" viewBox="0 0 18 17" fill="none" xmlns="http://www.w3.org/2000/svg">
<path id="Icon" d="M8.99999 15.6667H16.5M1.50002 15.6666H2.89547C3.30312 15.6666 3.50694 15.6666 3.69876 15.6206C3.86882 15.5798 4.03139 15.5124 4.18051 15.421C4.34871 15.318 4.49283 15.1738 4.78109 14.8856L15.25 4.41665C15.9404 3.72629 15.9404 2.607 15.25 1.91665C14.5597 1.22629 13.4404 1.22629 12.75 1.91665L2.28107 12.3856C1.99281 12.6739 1.84869 12.818 1.74562 12.9862C1.65423 13.1353 1.58689 13.2979 1.54607 13.4679C1.50002 13.6597 1.50002 13.8636 1.50002 14.2712V15.6666Z" stroke="#98A2B3" stroke-width="1.25" stroke-linecap="round" stroke-linejoin="round"/>
</svg>
