<svg width="20" height="23" viewBox="0 0 20 23" fill="none" xmlns="http://www.w3.org/2000/svg">
<path d="M19 10L11.4059 2.40589C10.887 1.88703 10.6276 1.6276 10.3249 1.44208C10.0564 1.27759 9.7638 1.15638 9.45769 1.08289C9.11243 1 8.74554 1 8.01177 1L4 1M1 7.7L1 9.67452C1 10.1637 1 10.4083 1.05526 10.6385C1.10425 10.8425 1.18506 11.0376 1.29472 11.2166C1.4184 11.4184 1.59136 11.5914 1.93726 11.9373L9.73726 19.7373C10.5293 20.5293 10.9253 20.9253 11.382 21.0737C11.7837 21.2042 12.2163 21.2042 12.618 21.0737C13.0747 20.9253 13.4707 20.5293 14.2627 19.7373L16.7373 17.2627C17.5293 16.4707 17.9253 16.0747 18.0737 15.618C18.2042 15.2163 18.2042 14.7837 18.0737 14.382C17.9253 13.9253 17.5293 13.5293 16.7373 12.7373L9.43726 5.43726C9.09136 5.09136 8.9184 4.9184 8.71657 4.79472C8.53763 4.68506 8.34254 4.60425 8.13846 4.55526C7.90829 4.5 7.6637 4.5 7.17452 4.5H4.2C3.0799 4.5 2.51984 4.5 2.09202 4.71799C1.7157 4.90973 1.40973 5.21569 1.21799 5.59202C1 6.01984 1 6.57989 1 7.7Z" stroke="#667085" stroke-width="2" stroke-linecap="round" stroke-linejoin="round"/>
</svg>
