<svg width="25" height="24" viewBox="0 0 25 24" fill="none" xmlns="http://www.w3.org/2000/svg">
<g id="image-user-plus">
<path id="Icon" d="M19.5 8V2M16.5 5H22.5M22.5 12V17.2C22.5 18.8802 22.5 19.7202 22.173 20.362C21.8854 20.9265 21.4265 21.3854 20.862 21.673C20.2202 22 19.3802 22 17.7 22H7.3C5.61984 22 4.77976 22 4.13803 21.673C3.57354 21.3854 3.1146 20.9265 2.82698 20.362C2.5 19.7202 2.5 18.8802 2.5 17.2V6.8C2.5 5.11984 2.5 4.27976 2.82698 3.63803C3.1146 3.07354 3.57354 2.6146 4.13803 2.32698C4.77976 2 5.61984 2 7.3 2H12.5M2.64574 19.9263C3.11488 18.2386 4.6628 17 6.5 17H13.5C14.4293 17 14.894 17 15.2804 17.0769C16.8671 17.3925 18.1075 18.6329 18.4231 20.2196C18.5 20.606 18.5 21.0707 18.5 22M14.5 9.5C14.5 11.7091 12.7091 13.5 10.5 13.5C8.29086 13.5 6.5 11.7091 6.5 9.5C6.5 7.29086 8.29086 5.5 10.5 5.5C12.7091 5.5 14.5 7.29086 14.5 9.5Z" stroke="#0C111D" stroke-width="1.8" stroke-linecap="round" stroke-linejoin="round"/>
</g>
</svg>
