<svg width="9" height="15" viewBox="0 0 9 15" fill="none" xmlns="http://www.w3.org/2000/svg">
<path d="M5.104 14.424H4.288V13.144C2.16 12.968 0.912 11.624 0.832 9.736H1.968C2.08 11.24 2.976 12.216 4.736 12.216C6.192 12.216 7.36 11.448 7.36 10.152C7.36 9.032 6.72 8.536 5.28 8.232L4 7.96C2.624 7.64 1.168 7.032 1.168 5.112C1.168 3.496 2.432 2.216 4.288 2.056V0.728H5.104V2.056C6.928 2.216 8.304 3.464 8.416 5.384H7.28C7.2 3.992 6.192 2.984 4.736 2.984C3.184 2.984 2.32 3.944 2.32 5.048C2.32 6.312 3.344 6.712 4.464 6.952L5.728 7.224C7.376 7.592 8.544 8.264 8.544 10.008C8.544 11.656 7.328 13.032 5.104 13.144V14.424Z" fill="#475467"/>
</svg>
