<svg width="23" height="20" viewBox="0 0 23 20" fill="none" xmlns="http://www.w3.org/2000/svg">
<path d="M7.86547 7.5L10.7 5.5H14.1915L13.0996 2.5H10.5V0.5H14.5L15.5919 3.5H19.5V6.5H16.6838L18.1405 10.5022C20.5608 10.5764 22.5 12.5617 22.5 15C22.5 17.4853 20.4853 19.5 18 19.5C15.5147 19.5 13.5 17.4853 13.5 15C13.5 13.1722 14.5897 11.5989 16.1549 10.8944L14.9194 7.5H13.9718L12.39 13.37L9.46536 14.4389C9.48822 14.6227 9.5 14.81 9.5 15C9.5 17.4853 7.48528 19.5 5 19.5C2.51472 19.5 0.5 17.4853 0.5 15C0.5 13.0407 1.75221 11.3738 3.5 10.7561V9.5H1.5V7.5H7.86547ZM5 17.5C6.38071 17.5 7.5 16.3807 7.5 15C7.5 13.6193 6.38071 12.5 5 12.5C3.61929 12.5 2.5 13.6193 2.5 15C2.5 16.3807 3.61929 17.5 5 17.5ZM18 17.5C19.3807 17.5 20.5 16.3807 20.5 15C20.5 13.6193 19.3807 12.5 18 12.5C16.6193 12.5 15.5 13.6193 15.5 15C15.5 16.3807 16.6193 17.5 18 17.5Z" fill="#0C111D"/>
</svg>
