<svg width="27" height="14" viewBox="0 0 27 14" fill="none" xmlns="http://www.w3.org/2000/svg">
<path d="M26.5132 5.59L22.2232 5.11L20.1832 1.54C19.6432 0.579999 18.5932 -0.0200005 17.4832 -0.0200005H13.5832C13.1932 -0.0200005 12.8932 0.279999 12.8932 0.669999V5.08H1.05523C0.665234 5.08 0.365234 5.38 0.365234 5.77V10.51C0.365234 10.9 0.665234 11.2 1.05523 11.2H2.61523C2.73523 12.79 4.05523 14.02 5.67523 14.02C7.29523 14.02 8.61523 12.76 8.73523 11.2H18.5332C18.6532 12.79 19.9732 14.02 21.5932 14.02C23.2132 14.02 24.5332 12.76 24.6532 11.2H26.3332C27.0832 11.2 27.7132 10.6 27.7132 9.82V6.97C27.7132 6.28 27.2032 5.68 26.5132 5.59ZM5.67523 12.58C4.77523 12.58 4.05523 11.86 4.05523 10.96C4.05523 10.06 4.77523 9.34 5.67523 9.34C6.57523 9.34 7.29523 10.06 7.29523 10.96C7.29523 11.83 6.57523 12.58 5.67523 12.58ZM19.7032 5.02H15.2632C15.1732 5.02 15.1132 4.96 15.1132 4.87V2.02C15.1132 1.93 15.1732 1.87 15.2632 1.87H17.4832C17.9032 1.87 18.2932 2.11 18.5032 2.47L19.8232 4.78C19.8832 4.9 19.8232 5.02 19.7032 5.02ZM21.5932 12.58C20.6932 12.58 19.9732 11.86 19.9732 10.96C19.9732 10.06 20.6932 9.34 21.5932 9.34C22.4932 9.34 23.2132 10.06 23.2132 10.96C23.2132 11.83 22.4932 12.58 21.5932 12.58Z" fill="#0C111D"/>
</svg>
