<svg width="27" height="26" viewBox="0 0 27 26" fill="none" xmlns="http://www.w3.org/2000/svg">
<path d="M10.25 11.375L12.4167 13.5417L17.2917 8.66667M22.1667 22.75V8.45C22.1667 6.62983 22.1667 5.71974 21.8125 5.02453C21.5009 4.413 21.0037 3.91582 20.3922 3.60423C19.697 3.25 18.7869 3.25 16.9667 3.25H10.0334C8.2132 3.25 7.30312 3.25 6.6079 3.60423C5.99638 3.91582 5.49919 4.413 5.1876 5.02453C4.83337 5.71974 4.83337 6.62983 4.83337 8.45V22.75L7.81254 20.5833L10.5209 22.75L13.5 20.5833L16.4792 22.75L19.1875 20.5833L22.1667 22.75Z" stroke="#0C111D" stroke-width="1.95" stroke-linecap="round" stroke-linejoin="round"/>
</svg>
