<svg width="18" height="18" viewBox="0 0 18 18" fill="none" xmlns="http://www.w3.org/2000/svg">
<path d="M1.82159 3.72239C1.1913 3.01796 0.876162 2.66574 0.864275 2.3664C0.853948 2.10636 0.965695 1.85643 1.16637 1.69074C1.39738 1.5 1.87 1.5 2.81524 1.5H15.1844C16.1296 1.5 16.6022 1.5 16.8332 1.69074C17.0339 1.85643 17.1456 2.10636 17.1353 2.3664C17.1234 2.66574 16.8083 3.01796 16.178 3.72239L11.4228 9.03703C11.2972 9.17745 11.2343 9.24766 11.1896 9.32756C11.1498 9.39843 11.1207 9.47473 11.103 9.55403C11.0831 9.64345 11.0831 9.73766 11.0831 9.92609V14.382C11.0831 14.5449 11.0831 14.6264 11.0568 14.6969C11.0336 14.7591 10.9958 14.8149 10.9467 14.8596C10.891 14.9102 10.8154 14.9404 10.6641 15.001L7.83073 16.1343C7.52444 16.2568 7.3713 16.3181 7.24836 16.2925C7.14085 16.2702 7.04651 16.2063 6.98584 16.1148C6.91646 16.0101 6.91646 15.8452 6.91646 15.5153V9.92609C6.91646 9.73766 6.91646 9.64345 6.89657 9.55403C6.87892 9.47473 6.84977 9.39843 6.81004 9.32756C6.76525 9.24766 6.70243 9.17745 6.57679 9.03703L1.82159 3.72239Z" stroke="#344054" stroke-width="1.66667" stroke-linecap="round" stroke-linejoin="round"/>
</svg>
