<svg width="12" height="14" viewBox="0 0 12 14" fill="none" xmlns="http://www.w3.org/2000/svg">
<path d="M11.25 5.83334H0.75M8.33333 1.16667V3.50001M3.66667 1.16667V3.50001M3.55 12.8333H8.45C9.43009 12.8333 9.92014 12.8333 10.2945 12.6426C10.6238 12.4748 10.8915 12.2071 11.0593 11.8778C11.25 11.5035 11.25 11.0134 11.25 10.0333V5.13334C11.25 4.15325 11.25 3.6632 11.0593 3.28886C10.8915 2.95957 10.6238 2.69186 10.2945 2.52408C9.92014 2.33334 9.43009 2.33334 8.45 2.33334H3.55C2.56991 2.33334 2.07986 2.33334 1.70552 2.52408C1.37623 2.69186 1.10852 2.95957 0.940739 3.28886C0.75 3.6632 0.75 4.15325 0.75 5.13334V10.0333C0.75 11.0134 0.75 11.5035 0.940739 11.8778C1.10852 12.2071 1.37623 12.4748 1.70552 12.6426C2.07986 12.8333 2.56991 12.8333 3.55 12.8333Z" stroke="#667085" stroke-linecap="round" stroke-linejoin="round"/>
</svg>
