<svg width="18" height="18" viewBox="0 0 18 18" fill="none" xmlns="http://www.w3.org/2000/svg">
<g id="Icon">
<path d="M9 17.3333C13.6024 17.3333 17.3333 13.6024 17.3333 9C17.3333 4.39763 13.6024 0.666672 9 0.666672C4.39762 0.666672 0.666664 4.39763 0.666664 9C0.666664 13.6024 4.39762 17.3333 9 17.3333Z" stroke="#98A2B3" stroke-width="1.25" stroke-linecap="round" stroke-linejoin="round"/>
<path d="M5.66666 7C5.66666 6.53329 5.66666 6.29994 5.75749 6.12168C5.83739 5.96488 5.96487 5.83739 6.12167 5.7575C6.29993 5.66667 6.53329 5.66667 7 5.66667H11C11.4667 5.66667 11.7001 5.66667 11.8783 5.7575C12.0351 5.83739 12.1626 5.96488 12.2425 6.12168C12.3333 6.29994 12.3333 6.53329 12.3333 7V11C12.3333 11.4667 12.3333 11.7001 12.2425 11.8783C12.1626 12.0351 12.0351 12.1626 11.8783 12.2425C11.7001 12.3333 11.4667 12.3333 11 12.3333H7C6.53329 12.3333 6.29993 12.3333 6.12167 12.2425C5.96487 12.1626 5.83739 12.0351 5.75749 11.8783C5.66666 11.7001 5.66666 11.4667 5.66666 11V7Z" stroke="#98A2B3" stroke-width="1.25" stroke-linecap="round" stroke-linejoin="round"/>
</g>
</svg>
