<svg width="25" height="24" viewBox="0 0 25 24" fill="none" xmlns="http://www.w3.org/2000/svg">
<path d="M6.00008 20.7611H8.8279C9.19659 20.7611 9.56304 20.805 9.92046 20.8927L12.9084 21.6188C13.5567 21.7767 14.2321 21.7921 14.8872 21.6649L18.1908 21.0221C19.0635 20.8521 19.8663 20.4342 20.4955 19.8222L22.8328 17.5485C23.5003 16.9003 23.5003 15.8485 22.8328 15.1992C22.2318 14.6146 21.2802 14.5487 20.6003 15.0445L17.8762 17.0319C17.4861 17.3171 17.0114 17.4706 16.5232 17.4706H13.8927L15.5671 17.4706C16.5108 17.4706 17.2753 16.7269 17.2753 15.8089V15.4766C17.2753 14.7143 16.7419 14.0496 15.982 13.8654L13.3977 13.2369C12.9772 13.1349 12.5465 13.0833 12.1135 13.0833C11.0683 13.0833 9.1763 13.9487 9.1763 13.9487L6.00008 15.277M1.66675 14.8167L1.66675 21.1C1.66675 21.7067 1.66675 22.0101 1.78482 22.2418C1.88869 22.4457 2.05442 22.6114 2.25826 22.7153C2.49 22.8333 2.79336 22.8333 3.40008 22.8333H4.26675C4.87347 22.8333 5.17683 22.8333 5.40857 22.7153C5.61241 22.6114 5.77814 22.4457 5.88201 22.2418C6.00008 22.0101 6.00008 21.7067 6.00008 21.1V14.8167C6.00008 14.2099 6.00008 13.9066 5.88201 13.6748C5.77814 13.471 5.61241 13.3053 5.40857 13.2014C5.17683 13.0833 4.87347 13.0833 4.26675 13.0833H3.40008C2.79336 13.0833 2.49 13.0833 2.25826 13.2014C2.05442 13.3053 1.88869 13.471 1.78482 13.6748C1.66675 13.9066 1.66675 14.2099 1.66675 14.8167ZM18.1241 2.89161C17.4775 1.53868 15.9869 0.821932 14.5372 1.51374C13.0876 2.20554 12.47 3.84616 13.0769 5.28639C13.452 6.1765 14.5267 7.905 15.293 9.09562C15.5761 9.53553 15.7177 9.75549 15.9245 9.88417C16.1019 9.99454 16.3239 10.054 16.5327 10.0471C16.7761 10.0391 17.0087 9.91938 17.4738 9.67996C18.7328 9.032 20.5277 8.07243 21.2976 7.48913C22.5434 6.54533 22.852 4.81054 21.9193 3.49176C20.9866 2.17298 19.3605 2.04321 18.1241 2.89161Z" stroke="#0C111D" stroke-width="1.95" stroke-linecap="round" stroke-linejoin="round"/>
</svg>
