<svg width="23" height="21" viewBox="0 0 23 21" fill="none" xmlns="http://www.w3.org/2000/svg">
<path d="M12.0412 13.7083V7.20833M8.79118 10.4583H15.2912M12.0412 19.6667C17.1268 19.6667 21.2495 15.544 21.2495 10.4583C21.2495 5.37271 17.1268 1.25 12.0412 1.25C6.95556 1.25 2.83285 5.37271 2.83285 10.4583C2.83285 11.4875 3.00168 12.4772 3.31316 13.4013C3.43038 13.7491 3.48899 13.923 3.49956 14.0565C3.51 14.1885 3.50211 14.281 3.46947 14.4092C3.43642 14.5391 3.36346 14.6741 3.21753 14.9442L1.44557 18.224C1.19281 18.6919 1.06644 18.9258 1.09472 19.1063C1.11936 19.2636 1.21191 19.402 1.34778 19.4849C1.50379 19.5801 1.76825 19.5527 2.29718 19.4981L7.84496 18.9246C8.01296 18.9072 8.09696 18.8985 8.17353 18.9015C8.24883 18.9044 8.30199 18.9114 8.37543 18.9284C8.4501 18.9456 8.54398 18.9817 8.73176 19.0541C9.75882 19.4498 10.8747 19.6667 12.0412 19.6667Z" stroke="#0C111D" stroke-width="1.95" stroke-linecap="round" stroke-linejoin="round"/>
</svg>
