<svg width="25" height="24" viewBox="0 0 25 24" fill="none" xmlns="http://www.w3.org/2000/svg">
<g id="phone-01">
<path id="Icon" d="M12.5 17.5H12.51M8.7 22H16.3C17.4201 22 17.9802 22 18.408 21.782C18.7843 21.5903 19.0903 21.2843 19.282 20.908C19.5 20.4802 19.5 19.9201 19.5 18.8V5.2C19.5 4.07989 19.5 3.51984 19.282 3.09202C19.0903 2.71569 18.7843 2.40973 18.408 2.21799C17.9802 2 17.4201 2 16.3 2H8.7C7.5799 2 7.01984 2 6.59202 2.21799C6.21569 2.40973 5.90973 2.71569 5.71799 3.09202C5.5 3.51984 5.5 4.0799 5.5 5.2V18.8C5.5 19.9201 5.5 20.4802 5.71799 20.908C5.90973 21.2843 6.21569 21.5903 6.59202 21.782C7.01984 22 7.57989 22 8.7 22ZM13 17.5C13 17.7761 12.7761 18 12.5 18C12.2239 18 12 17.7761 12 17.5C12 17.2239 12.2239 17 12.5 17C12.7761 17 13 17.2239 13 17.5Z" stroke="#0C111D" stroke-width="1.8" stroke-linecap="round" stroke-linejoin="round"/>
</g>
</svg>
