<svg width="30" height="32" viewBox="0 0 30 32" fill="none" xmlns="http://www.w3.org/2000/svg">
<g id="Group 110">
<path id="h" d="M11.8967 16.7111H13.5412V19.8666C13.8856 19.6778 14.269 19.5278 14.6912 19.4166C15.1171 19.3055 15.5634 19.25 16.0301 19.25C16.5708 19.25 17.056 19.3296 17.4856 19.4889C17.919 19.6481 18.2856 19.8778 18.5856 20.1778C18.8856 20.4741 19.1152 20.8352 19.2745 21.2611C19.4375 21.687 19.519 22.1666 19.519 22.7V25.9222H17.8801V22.7666C17.8801 22.4555 17.8301 22.1722 17.7301 21.9166C17.6301 21.6574 17.4838 21.4352 17.2912 21.25C17.0986 21.0648 16.8634 20.9222 16.5856 20.8222C16.3115 20.7185 16.0004 20.6666 15.6523 20.6666C15.2338 20.6666 14.8449 20.7333 14.4856 20.8666C14.1264 21 13.8115 21.1685 13.5412 21.3722V25.9222H11.8967V16.7111Z" fill="#FB5607"/>
<g id="Bag 1">
<path id="Vector (Stroke)" fill-rule="evenodd" clip-rule="evenodd" d="M8.24446 6.75556C8.24446 3.02457 11.269 0 15 0C18.731 0 21.7556 3.02457 21.7556 6.75556V7.37529C22.2969 7.48214 22.7973 7.63471 23.2779 7.85502C24.7078 8.51054 25.9184 9.56458 26.7644 10.8908C27.2765 11.6934 27.5803 12.5914 27.819 13.6867C28.0528 14.7599 28.2387 16.0978 28.4751 17.7999L28.4881 17.8941C28.7924 20.0845 29.0302 21.7968 29.1024 23.1761C29.1758 24.5764 29.0871 25.7434 28.6658 26.8147C27.9773 28.5658 26.706 30.0259 25.0663 30.9488C24.063 31.5134 22.9194 31.7618 21.5222 31.8818C20.1462 32 18.4175 32 16.2061 32H13.7939C11.5825 32 9.85382 32 8.47778 31.8818C7.08065 31.7618 5.93699 31.5134 4.93377 30.9488C3.29407 30.0259 2.02277 28.5658 1.33424 26.8147C0.912974 25.7434 0.824253 24.5764 0.897594 23.1761C0.969827 21.7969 1.20765 20.0846 1.51187 17.8942L1.52496 17.8C1.76137 16.0978 1.94718 14.7599 2.18104 13.6867C2.41972 12.5914 2.72356 11.6934 3.23562 10.8908C4.08163 9.56458 5.29218 8.51054 6.72213 7.85502C7.20269 7.63471 7.70309 7.48215 8.24446 7.37529V6.75556ZM8.24446 9.56534V13.8667C8.24446 14.4558 8.72202 14.9333 9.31112 14.9333C9.90023 14.9333 10.3778 14.4558 10.3778 13.8667V9.2871C11.2793 9.24517 12.3919 9.24444 13.845 9.24444H16.155C17.6081 9.24444 18.7208 9.24517 19.6222 9.2871V13.8667C19.6222 14.4558 20.0998 14.9333 20.6889 14.9333C21.278 14.9333 21.7556 14.4558 21.7556 13.8667V9.56534C21.9872 9.62953 22.1949 9.70535 22.3889 9.79429C23.4458 10.2788 24.3406 11.0579 24.9659 12.0381C25.2887 12.5441 25.523 13.17 25.7346 14.1409C25.949 15.1248 26.1243 16.3818 26.3681 18.1371C26.6808 20.3889 26.9051 22.0107 26.972 23.2876C27.0383 24.5541 26.9412 25.371 26.6804 26.0341C26.1715 27.3284 25.2318 28.4075 24.0199 29.0897C23.399 29.4391 22.6032 29.6478 21.3397 29.7563C20.0656 29.8657 18.4284 29.8667 16.155 29.8667H13.845C11.5716 29.8667 9.93439 29.8657 8.66034 29.7563C7.39679 29.6478 6.60106 29.4391 5.98013 29.0897C4.76818 28.4075 3.82852 27.3284 3.31961 26.0341C3.05887 25.371 2.96168 24.5541 3.02801 23.2876C3.09489 22.0107 3.3192 20.3889 3.63195 18.1371C3.87574 16.3818 4.05105 15.1248 4.26546 14.1409C4.47702 13.17 4.71137 12.5441 5.03415 12.0381C5.65947 11.0579 6.55422 10.2788 7.61114 9.79429C7.80514 9.70535 8.01281 9.62953 8.24446 9.56534ZM19.6222 7.15186C18.6724 7.11109 17.5561 7.1111 16.2194 7.11111H13.7806C12.4439 7.1111 11.3277 7.11109 10.3778 7.15186V6.75556C10.3778 4.20277 12.4472 2.13333 15 2.13333C17.5528 2.13333 19.6222 4.20277 19.6222 6.75556V7.15186Z" fill="#FB5607"/>
</g>
</g>
</svg>
