<svg width="20" height="20" viewBox="0 0 20 20" fill="none" xmlns="http://www.w3.org/2000/svg">
<path d="M6.66666 6.66667V5.83333M6.66666 10.4167V9.58333M6.66666 14.1667V13.3333M5.66666 16.6667H14.3333C15.7335 16.6667 16.4335 16.6667 16.9683 16.3942C17.4387 16.1545 17.8212 15.772 18.0608 15.3016C18.3333 14.7669 18.3333 14.0668 18.3333 12.6667V7.33333C18.3333 5.9332 18.3333 5.23314 18.0608 4.69836C17.8212 4.22795 17.4387 3.8455 16.9683 3.60582C16.4335 3.33333 15.7335 3.33333 14.3333 3.33333H5.66666C4.26653 3.33333 3.56646 3.33333 3.03168 3.60582C2.56128 3.8455 2.17882 4.22795 1.93914 4.69836C1.66666 5.23314 1.66666 5.9332 1.66666 7.33333V12.6667C1.66666 14.0668 1.66666 14.7669 1.93914 15.3016C2.17882 15.772 2.56128 16.1545 3.03168 16.3942C3.56646 16.6667 4.26653 16.6667 5.66666 16.6667Z" stroke="#98A2B3" stroke-width="1.66667" stroke-linecap="round" stroke-linejoin="round"/>
</svg>
