<svg width="20" height="20" viewBox="0 0 20 20" fill="none" xmlns="http://www.w3.org/2000/svg">
<g clip-path="url(#clip0_356_1882)">
<path d="M4.43024 16.1987C4.93717 15.0043 6.12076 14.1667 7.49999 14.1667H12.5C13.8792 14.1667 15.0628 15.0043 15.5697 16.1987M13.3333 7.91666C13.3333 9.75761 11.8409 11.25 9.99999 11.25C8.15904 11.25 6.66666 9.75761 6.66666 7.91666C6.66666 6.07571 8.15904 4.58333 9.99999 4.58333C11.8409 4.58333 13.3333 6.07571 13.3333 7.91666ZM18.3333 10C18.3333 14.6024 14.6024 18.3333 9.99999 18.3333C5.39762 18.3333 1.66666 14.6024 1.66666 10C1.66666 5.39762 5.39762 1.66666 9.99999 1.66666C14.6024 1.66666 18.3333 5.39762 18.3333 10Z" stroke="#98A2B3" stroke-width="1.66667" stroke-linecap="round" stroke-linejoin="round"/>
</g>
<defs>
<clipPath id="clip0_356_1882">
<rect width="20" height="20" fill="white"/>
</clipPath>
</defs>
</svg>
