<svg width="27" height="26" viewBox="0 0 27 26" fill="none" xmlns="http://www.w3.org/2000/svg">
<path d="M17.8333 6.5L21.0833 3.25M21.0833 3.25L24.3333 6.5M21.0833 3.25V9.75M17.8333 22.75V21.45C17.8333 19.6298 17.8333 18.7197 17.4791 18.0245C17.1675 17.413 16.6703 16.9158 16.0588 16.6042C15.3635 16.25 14.4535 16.25 12.6333 16.25H7.86663C6.04646 16.25 5.13637 16.25 4.44116 16.6042C3.82963 16.9158 3.33244 17.413 3.02085 18.0245C2.66663 18.7197 2.66663 19.6298 2.66663 21.45V22.75M14.0416 8.125C14.0416 10.2191 12.344 11.9167 10.25 11.9167C8.15588 11.9167 6.45829 10.2191 6.45829 8.125C6.45829 6.03092 8.15588 4.33333 10.25 4.33333C12.344 4.33333 14.0416 6.03092 14.0416 8.125Z" stroke="#0C111D" stroke-width="1.95" stroke-linecap="round" stroke-linejoin="round"/>
</svg>
